HIERARCHY
ROOT pelvis
{
	OFFSET 0.000000 0.000000 0.722303
	CHANNELS 6 Xposition Yposition Zposition Xrotation Yrotation Zrotation
	JOINT spine
	{
		OFFSET 0.000000 0.000000 0.000000
		CHANNELS 6 Xposition Yposition Zposition Xrotation Yrotation Zrotation
		JOINT spine.001
		{
			OFFSET 0.000000 -0.014140 0.269799
			CHANNELS 3 Xrotation Yrotation Zrotation
			JOINT neck
			{
				OFFSET 0.000000 0.032925 0.268155
				CHANNELS 6 Xposition Yposition Zposition Xrotation Yrotation Zrotation
				JOINT face
				{
					OFFSET 0.000000 0.003567 0.204331
					CHANNELS 6 Xposition Yposition Zposition Xrotation Yrotation Zrotation
					End Site
					{
						OFFSET 0.000000 -0.028602 -0.007695
					}
				}
			}
			JOINT shoulder.L
			{
				OFFSET 0.000000 0.032925 0.268155
				CHANNELS 6 Xposition Yposition Zposition Yrotation Xrotation Zrotation
				JOINT upper_arm.L
				{
					OFFSET 0.166001 0.000000 0.000000
					CHANNELS 6 Xposition Yposition Zposition Xrotation Yrotation Zrotation
					JOINT forearm.L
					{
						OFFSET 0.276826 0.000115 0.000950
						CHANNELS 6 Xposition Yposition Zposition Xrotation Yrotation Zrotation
						End Site
						{
							OFFSET 0.244356 -0.004160 -0.001310
						}
					}
				}
			}
			JOINT shoulder.R
			{
				OFFSET 0.000000 0.032925 0.268155
				CHANNELS 6 Xposition Yposition Zposition Yrotation Xrotation Zrotation
				JOINT upper_arm.R
				{
					OFFSET -0.166001 0.000000 0.000000
					CHANNELS 6 Xposition Yposition Zposition Xrotation Yrotation Zrotation
					JOINT forearm.R
					{
						OFFSET -0.273042 0.000115 0.000950
						CHANNELS 6 Xposition Yposition Zposition Xrotation Yrotation Zrotation
						End Site
						{
							OFFSET -0.239433 -0.004074 -0.001309
						}
					}
				}
			}
		}
	}
	JOINT pelvis.L
	{
		OFFSET 0.000000 0.000000 0.000000
		CHANNELS 6 Xposition Yposition Zposition Yrotation Xrotation Zrotation
		End Site
		{
			OFFSET 0.107830 0.000000 0.000000
		}
	}
	JOINT pelvis.R
	{
		OFFSET 0.000000 0.000000 0.000000
		CHANNELS 6 Xposition Yposition Zposition Yrotation Xrotation Zrotation
		End Site
		{
			OFFSET -0.107830 0.000000 0.000000
		}
	}
	JOINT thigh.L
	{
		OFFSET 0.107830 0.000000 0.000000
		CHANNELS 6 Xposition Yposition Zposition Xrotation Yrotation Zrotation
		JOINT shin.L
		{
			OFFSET 0.017911 0.000000 -0.341766
			CHANNELS 6 Xposition Yposition Zposition Xrotation Yrotation Zrotation
			JOINT foot.L
			{
				OFFSET 0.015944 0.000000 -0.304224
				CHANNELS 3 Xrotation Yrotation Zrotation
				End Site
				{
					OFFSET 0.015794 -0.161042 -0.067624
				}
			}
			JOINT heel.02.L
			{
				OFFSET 0.015944 0.000000 -0.304224
				CHANNELS 3 Xrotation Yrotation Zrotation
				End Site
				{
					OFFSET -0.075748 0.034159 -0.079500
				}
			}
		}
	}
	JOINT thigh.R
	{
		OFFSET -0.107830 0.000000 0.000000
		CHANNELS 6 Xposition Yposition Zposition Xrotation Yrotation Zrotation
		JOINT shin.R
		{
			OFFSET -0.017874 0.000000 -0.341064
			CHANNELS 6 Xposition Yposition Zposition Xrotation Yrotation Zrotation
			JOINT foot.R
			{
				OFFSET -0.016296 0.000000 -0.310946
				CHANNELS 3 Xrotation Yrotation Zrotation
				End Site
				{
					OFFSET -0.017587 -0.179314 -0.075297
				}
			}
			JOINT heel.02.R
			{
				OFFSET -0.016296 0.000000 -0.310946
				CHANNELS 3 Xrotation Yrotation Zrotation
				End Site
				{
					OFFSET 0.074710 0.034159 -0.073409
				}
			}
		}
	}
}
MOTION
Frames: 9
Frame Time: 0.041667
-0.008137 0.039467 0.703698 -0.000000 0.000000 -14.857634 0.000000 0.000000 0.000000 -7.001930 2.039039 0.232380 9.824933 -1.559209 -12.808260 -0.000000 0.032925 0.268155 27.558849 -11.913902 -26.604142 0.000000 0.003567 0.204331 3.256208 -0.000007 0.000001 0.000000 0.032925 0.268156 2.430270 0.006327 -0.298283 0.166001 0.000000 -0.000000 19.018400 75.711964 -24.330177 0.276826 0.000115 0.000950 1.274664 8.559252 -16.088698 0.000000 0.032925 0.268156 2.481161 0.006597 -0.304610 -0.166001 0.000000 -0.000000 29.898620 -76.913135 37.156352 -0.273042 0.000115 0.000950 3.235607 -14.305263 24.431834 0.000000 0.000000 -0.000000 -0.246148 -0.000000 -0.000026 0.000000 0.000000 -0.000000 -0.246116 -0.000000 0.000001 0.107829 0.000000 0.000463 4.636382 2.268985 0.151409 0.017911 0.000000 -0.341766 -0.463001 -0.671858 -0.026973 0.965473 -11.484834 27.150340 -1.127596 -16.656166 -7.345002 -0.107829 0.000000 -0.000463 -4.645166 1.783149 0.315648 -0.017874 0.000000 -0.341064 6.893966 -5.095787 -0.054717 -5.245040 1.625471 -2.310763 0.520106 31.240609 21.069952 
-0.008221 0.039092 0.703929 -0.000000 0.000000 -14.339786 -0.000000 -0.000000 0.000000 -6.855479 1.946802 0.219343 9.840480 -1.489573 -12.226697 -0.000000 0.032925 0.268155 27.062806 -11.881601 -24.443205 0.000000 0.003567 0.204331 4.387900 0.000003 0.000005 -0.000000 0.032925 0.268155 2.465829 0.006515 -0.302748 0.166001 0.000000 -0.000000 20.097763 75.251124 -25.896322 0.276826 0.000115 0.000950 1.318337 8.920227 -15.900740 -0.000000 0.032925 0.268156 2.516729 0.006786 -0.308950 -0.166001 0.000000 -0.000000 29.512619 -77.036303 36.614028 -0.273042 0.000115 0.000950 3.242615 -14.151697 24.779721 0.000000 -0.000000 0.000000 -0.150311 0.000000 -0.000073 0.000000 -0.000000 0.000000 -0.150311 0.000000 0.000001 0.107830 0.000000 0.000283 4.582159 2.243746 0.150643 0.017911 0.000000 -0.341766 -0.472951 -0.677852 -0.027575 0.851306 -11.344015 26.740703 -1.046185 -16.856096 -7.537821 -0.107830 0.000000 -0.000283 -4.470990 1.815674 0.305062 -0.017874 0.000000 -0.341064 6.821471 -5.160571 -0.050267 -5.322246 1.803232 -2.661860 0.448896 31.098592 20.873546 
-0.008526 0.038359 0.704323 -0.000000 0.000000 -13.564278 0.000000 0.000000 0.000000 -6.656825 1.900153 0.210753 9.856107 -1.415557 -11.610400 -0.000000 0.032925 0.268156 26.206667 -11.872909 -22.522148 -0.000000 0.003567 0.204331 5.827300 -0.000002 -0.000003 0.000000 0.032925 0.268155 2.456912 0.006466 -0.301534 0.166001 -0.000000 -0.000000 21.239441 74.876140 -27.520547 0.276826 0.000115 0.000950 1.376874 9.282634 -15.916368 -0.000000 0.032925 0.268155 2.507849 0.006738 -0.307784 -0.166001 0.000000 -0.000000 28.491781 -77.155190 35.308007 -0.273042 0.000115 0.000950 3.221926 -13.955148 24.996194 0.000000 -0.000000 0.000000 -0.028187 -0.000000 -0.000114 0.000000 -0.000000 0.000000 -0.028187 -0.000000 0.000000 0.107830 -0.000000 0.000053 4.518766 2.187696 0.150769 0.017911 0.000000 -0.341766 -0.491645 -0.648716 -0.028543 0.614200 -11.174311 26.165941 -0.905134 -17.116336 -7.820916 -0.107830 0.000000 -0.000053 -4.175114 1.835860 0.285589 -0.017874 -0.000000 -0.341064 6.668690 -5.236980 -0.044669 -5.382786 2.103331 -3.271228 0.354892 30.859925 20.566751 
-0.008938 0.037297 0.704673 -0.000000 0.000000 -12.683530 0.000000 -0.000000 0.000000 -6.529492 1.877149 0.206088 9.870252 -1.344776 -11.022072 -0.000000 0.032925 0.268155 25.358460 -11.694581 -20.581474 0.000000 0.003567 0.204331 7.232432 0.000004 0.000007 -0.000000 0.032925 0.268155 2.417018 0.006260 -0.296700 0.166001 0.000000 -0.000000 21.966242 74.668782 -28.547022 0.276826 0.000115 0.000950 1.466835 9.642316 -16.323635 -0.000000 0.032925 0.268155 2.467954 0.006525 -0.302952 -0.166001 0.000000 -0.000000 27.276000 -77.215282 33.800680 -0.273042 0.000115 0.000950 3.184983 -13.733688 25.135364 0.000000 0.000000 0.000000 0.082725 -0.000000 0.000138 0.000000 0.000000 0.000000 0.082756 -0.000000 0.000000 0.107830 0.000000 -0.000156 4.482312 2.109787 0.152601 0.017911 -0.000000 -0.341766 -0.545946 -0.583617 -0.031385 0.293000 -10.989552 25.494152 -0.741239 -17.359363 -8.114526 -0.107830 0.000000 0.000156 -3.783783 1.853120 0.259368 -0.017874 0.000000 -0.341064 6.400734 -5.317261 -0.038364 -5.359925 2.448762 -3.997599 0.245217 30.601959 20.229166 
-0.009169 0.036263 0.704781 -0.000000 0.000000 -11.868829 -0.000000 0.000000 0.000000 -6.503618 1.849990 0.202684 9.884456 -1.269696 -10.399585 -0.000000 0.032925 0.268155 24.753840 -11.304136 -18.438919 -0.000000 0.003567 0.204331 8.401357 0.000005 -0.000008 0.000000 0.032925 0.268156 2.349019 0.005913 -0.288377 0.166001 -0.000000 -0.000000 22.453057 74.599019 -29.202627 0.276826 0.000115 0.000950 1.591976 10.039903 -17.039628 0.000000 0.032925 0.268155 2.399914 0.006170 -0.294601 -0.166001 0.000000 -0.000000 26.760637 -77.159923 33.206327 -0.273042 0.000115 0.000950 3.089008 -13.433181 24.945722 -0.000000 0.000000 0.000000 0.156772 -0.000000 -0.000096 -0.000000 0.000000 0.000000 0.156803 -0.000000 -0.000001 0.107830 0.000000 -0.000295 4.476386 2.056285 0.154485 0.017911 0.000000 -0.341766 -0.645311 -0.529514 -0.036793 0.039688 -10.789851 24.851237 -0.583162 -17.544275 -8.367969 -0.107830 0.000000 0.000295 -3.389575 1.872217 0.232892 -0.017874 -0.000000 -0.341064 6.065902 -5.383990 -0.032801 -5.239754 2.755789 -4.674623 0.146997 30.370153 19.927073 
-0.009050 0.035542 0.704684 -0.000000 0.000000 -11.161939 0.000000 0.000000 0.000000 -6.516853 1.808959 0.198399 9.900006 -1.181757 -9.671820 0.000000 0.032925 0.268155 24.401119 -10.753319 -16.240310 -0.000000 0.003567 0.204331 9.243351 -0.000001 -0.000002 -0.000000 0.032925 0.268155 2.257439 0.005460 -0.277127 0.166001 -0.000000 0.000000 23.209249 74.555627 -30.188815 0.276826 0.000115 0.000950 1.730936 10.481739 -17.764251 -0.000000 0.032925 0.268155 2.308376 0.005708 -0.283388 -0.166001 0.000000 0.000000 27.215512 -76.989073 33.855240 -0.273042 0.000115 0.000950 2.917719 -13.063488 24.236213 0.000000 -0.000000 0.000000 0.197722 -0.000000 0.000006 0.000000 -0.000000 0.000000 0.197691 -0.000000 0.000000 0.107830 0.000000 -0.000372 4.493823 2.057312 0.155048 0.017911 0.000000 -0.341766 -0.811255 -0.516020 -0.046161 -0.042776 -10.566580 24.295686 -0.429068 -17.721908 -8.613395 -0.107830 0.000000 0.000372 -3.070682 1.885208 0.211317 -0.017874 -0.000000 -0.341064 5.774021 -5.417158 -0.029542 -5.095237 3.012461 -5.257236 0.075737 30.147950 19.658746 
-0.008682 0.035145 0.704609 -0.000000 0.000000 -10.489245 0.000000 -0.000000 0.000000 -6.529490 1.767964 0.194100 9.915590 -1.085996 -8.881304 -0.000000 0.032925 0.268155 24.323396 -10.091164 -14.202757 0.000000 0.003567 0.204331 9.582508 -0.000001 -0.000008 0.000000 0.032925 0.268155 2.163398 0.005016 -0.265629 0.166001 -0.000000 -0.000000 24.314980 74.471943 -31.640926 0.276826 0.000115 0.000950 1.853896 10.892384 -18.312980 0.000000 0.032925 0.268155 2.214336 0.005253 -0.271849 -0.166001 0.000000 0.000000 27.971395 -76.774031 34.899275 -0.273042 0.000115 0.000950 2.724097 -12.714492 23.237028 0.000000 -0.000000 0.000000 0.229964 -0.000000 -0.000092 0.000000 -0.000000 0.000000 0.229932 -0.000000 -0.000001 0.107830 0.000000 -0.000433 4.524859 2.084689 0.155040 0.017911 -0.000000 -0.341766 -1.053499 -0.513052 -0.059917 -0.019254 -10.325206 23.782842 -0.262257 -17.963181 -8.908776 -0.107829 0.000000 0.000433 -2.836002 1.885172 0.195160 -0.017874 0.000000 -0.341064 5.590278 -5.411805 -0.028862 -4.997053 3.262056 -5.812044 0.034408 29.908750 19.402657 
-0.008288 0.035003 0.704638 -0.000000 0.000000 -9.717261 0.000000 0.000000 0.000000 -6.556251 1.752513 0.192818 9.929365 -0.994540 -8.127886 -0.000000 0.032925 0.268155 24.543776 -9.467249 -12.422390 0.000000 0.003567 0.204331 9.370646 0.000001 -0.000002 -0.000000 0.032925 0.268156 2.067930 0.004583 -0.253936 0.166001 -0.000000 0.000000 25.592555 74.386211 -33.312168 0.276826 0.000115 0.000950 1.937188 11.159292 -18.681172 0.000000 0.032925 0.268156 2.118871 0.004811 -0.260122 -0.166001 0.000000 0.000000 28.366496 -76.576133 35.497402 -0.273042 0.000115 0.000950 2.554986 -12.412891 22.305277 0.000000 0.000000 0.000000 0.288651 0.000000 0.000065 0.000000 0.000000 0.000000 0.288619 -0.000000 -0.000001 0.107829 0.000000 -0.000543 4.507266 2.087826 0.154312 0.017911 -0.000000 -0.341766 -1.277835 -0.486356 -0.072379 -0.077333 -10.073555 23.183284 -0.058475 -18.283214 -9.285220 -0.107829 0.000000 0.000543 -2.628588 1.887115 0.180928 -0.017874 0.000000 -0.341064 5.465923 -5.404446 -0.028572 -4.933382 3.562611 -6.462762 0.033148 29.628824 19.146852 
-0.007975 0.035098 0.704544 -0.000000 0.000000 -8.701162 0.000000 0.000000 0.000000 -6.599186 1.768203 0.195215 9.940831 -0.911302 -7.443252 0.000000 0.032925 0.268155 24.862887 -9.111170 -10.929164 -0.000000 0.003567 0.204331 8.971039 0.000002 -0.000001 0.000000 0.032925 0.268155 1.921351 0.003958 -0.235985 0.166001 -0.000000 0.000000 27.298173 74.359388 -35.489014 0.276826 0.000115 0.000950 1.961111 11.222316 -18.809740 0.000000 0.032925 0.268155 1.972291 0.004169 -0.242170 -0.166001 0.000000 -0.000000 28.319038 -76.384847 35.552709 -0.273042 0.000115 0.000950 2.402543 -12.087825 21.526113 -0.000000 0.000000 0.000000 0.401401 -0.000001 0.000144 -0.000000 0.000000 0.000000 0.401370 -0.000000 -0.000001 0.107828 -0.000000 -0.000755 4.338544 2.055331 0.149761 0.017911 0.000000 -0.341766 -1.316447 -0.455668 -0.074217 -0.355940 -9.791580 22.352841 0.211190 -18.657498 -9.753648 -0.107828 0.000000 0.000755 -2.368973 1.922874 0.163788 -0.017874 0.000000 -0.341064 5.301134 -5.466019 -0.024845 -4.866009 3.973077 -7.345345 0.074432 29.248591 18.841292 
